<?xml version="1.0" encoding="UTF-8"?>
<svg xmlns="http://www.w3.org/2000/svg" xmlns:xlink="http://www.w3.org/1999/xlink" width="20pt" height="20pt" viewBox="0 0 20 20" version="1.1">
<g id="surface1">
<path style=" stroke:none;fill-rule:nonzero;fill:rgb(50.196078%,54.117647%,100%);fill-opacity:1;" d="M 19.910156 9.957031 C 19.910156 10.300781 19.894531 10.644531 19.859375 10.980469 C 19.828125 11.28125 19.785156 11.574219 19.726562 11.863281 C 19.707031 11.976562 19.683594 12.085938 19.660156 12.199219 C 19.652344 12.230469 19.644531 12.261719 19.636719 12.292969 C 19.632812 12.308594 19.628906 12.328125 19.621094 12.347656 C 18.722656 15.992188 15.8125 18.847656 12.136719 19.671875 C 11.933594 19.71875 11.730469 19.757812 11.519531 19.789062 C 11.152344 19.847656 10.777344 19.882812 10.398438 19.902344 C 10.25 19.90625 10.105469 19.910156 9.957031 19.910156 C 4.457031 19.910156 0 15.453125 0 9.957031 C 0 4.457031 4.457031 0 9.957031 0 C 15.453125 0 19.910156 4.457031 19.910156 9.957031 Z M 19.910156 9.957031 "/>
<path style=" stroke:none;fill-rule:nonzero;fill:rgb(40%,43.137255%,80%);fill-opacity:1;" d="M 19.859375 10.980469 C 19.828125 11.28125 19.785156 11.574219 19.726562 11.863281 C 19.707031 11.976562 19.683594 12.085938 19.660156 12.199219 C 19.652344 12.230469 19.644531 12.261719 19.636719 12.292969 C 19.632812 12.308594 19.628906 12.328125 19.621094 12.347656 C 18.722656 15.992188 15.8125 18.847656 12.136719 19.671875 C 11.933594 19.71875 11.730469 19.757812 11.519531 19.789062 C 11.152344 19.847656 10.777344 19.882812 10.398438 19.902344 C 10.386719 19.890625 5.078125 14.582031 5.078125 14.582031 L 13.960938 5.070312 Z M 19.859375 10.980469 "/>
<path style=" stroke:none;fill-rule:nonzero;fill:rgb(92.156863%,92.156863%,92.156863%);fill-opacity:1;" d="M 8.847656 14.792969 L 5.609375 14.792969 C 5.179688 14.792969 4.832031 14.445312 4.832031 14.015625 L 4.832031 7.207031 L 8.847656 7.207031 Z M 8.847656 14.792969 "/>
<path style=" stroke:none;fill-rule:nonzero;fill:rgb(100%,100%,100%);fill-opacity:1;" d="M 13.960938 14.792969 L 6.574219 14.792969 C 6.144531 14.792969 5.796875 14.445312 5.796875 14.015625 L 5.796875 5.070312 L 13.960938 5.070312 Z M 13.960938 14.792969 "/>
<path style=" stroke:none;fill-rule:nonzero;fill:rgb(92.156863%,92.156863%,92.156863%);fill-opacity:1;" d="M 9.878906 5.070312 L 13.960938 5.070312 L 13.960938 14.792969 L 9.878906 14.792969 Z M 9.878906 5.070312 "/>
<path style=" stroke:none;fill-rule:nonzero;fill:rgb(75.294118%,85.490196%,98.431373%);fill-opacity:1;" d="M 6.960938 6.21875 L 12.796875 6.21875 L 12.796875 8.550781 L 6.960938 8.550781 Z M 6.960938 6.21875 "/>
<path style=" stroke:none;fill-rule:nonzero;fill:rgb(75.294118%,85.490196%,98.431373%);fill-opacity:1;" d="M 6.960938 9.328125 L 12.796875 9.328125 L 12.796875 10.105469 L 6.960938 10.105469 Z M 6.960938 9.328125 "/>
<path style=" stroke:none;fill-rule:nonzero;fill:rgb(75.294118%,85.490196%,98.431373%);fill-opacity:1;" d="M 6.960938 10.886719 L 9.488281 10.886719 L 9.488281 11.664062 L 6.960938 11.664062 Z M 6.960938 10.886719 "/>
<path style=" stroke:none;fill-rule:nonzero;fill:rgb(75.294118%,85.490196%,98.431373%);fill-opacity:1;" d="M 6.960938 12.441406 L 9.488281 12.441406 L 9.488281 13.21875 L 6.960938 13.21875 Z M 6.960938 12.441406 "/>
<path style=" stroke:none;fill-rule:nonzero;fill:rgb(62.745098%,72.54902%,84.705882%);fill-opacity:1;" d="M 10.269531 10.886719 L 12.796875 10.886719 L 12.796875 13.21875 L 10.269531 13.21875 Z M 10.269531 10.886719 "/>
<path style=" stroke:none;fill-rule:nonzero;fill:rgb(62.745098%,72.54902%,84.705882%);fill-opacity:1;" d="M 9.878906 9.328125 L 12.796875 9.328125 L 12.796875 10.105469 L 9.878906 10.105469 Z M 9.878906 9.328125 "/>
<path style=" stroke:none;fill-rule:nonzero;fill:rgb(62.745098%,72.54902%,84.705882%);fill-opacity:1;" d="M 9.878906 6.21875 L 12.796875 6.21875 L 12.796875 8.550781 L 9.878906 8.550781 Z M 9.878906 6.21875 "/>
<path style=" stroke:none;fill-rule:nonzero;fill:rgb(100%,40%,50.196078%);fill-opacity:1;" d="M 6.625 10.625 L 11.722656 7.054688 L 13.285156 9.285156 L 8.1875 12.855469 Z M 6.625 10.625 "/>
<path style=" stroke:none;fill-rule:nonzero;fill:rgb(81.960784%,28.627451%,37.647059%);fill-opacity:1;" d="M 9.175781 8.839844 L 11.722656 7.054688 L 13.285156 9.285156 L 10.738281 11.070312 Z M 9.175781 8.839844 "/>
<path style=" stroke:none;fill-rule:nonzero;fill:rgb(100%,100%,100%);fill-opacity:1;" d="M 8.699219 10.996094 L 8.234375 11.320312 L 8.570312 11.804688 L 8.328125 11.972656 L 7.503906 10.796875 L 8.269531 10.257812 L 8.40625 10.457031 L 7.882812 10.820312 L 8.097656 11.125 L 8.5625 10.800781 Z M 8.699219 10.996094 "/>
<path style=" stroke:none;fill-rule:nonzero;fill:rgb(100%,100%,100%);fill-opacity:1;" d="M 9.699219 10.652344 L 9.273438 10.949219 L 9.363281 11.25 L 9.105469 11.429688 L 8.71875 9.945312 L 8.945312 9.789062 L 10.207031 10.65625 L 9.949219 10.835938 Z M 9.203125 10.707031 L 9.496094 10.5 L 9.039062 10.164062 Z M 9.203125 10.707031 "/>
<path style=" stroke:none;fill-rule:nonzero;fill:rgb(92.156863%,92.156863%,92.156863%);fill-opacity:1;" d="M 10.480469 9.761719 L 10.449219 9.984375 L 10.6875 10.320312 L 10.441406 10.492188 L 9.617188 9.316406 L 9.859375 9.144531 L 10.234375 9.679688 L 10.238281 9.457031 L 10.269531 8.859375 L 10.566406 8.652344 L 10.515625 9.464844 L 11.402344 9.820312 L 11.113281 10.019531 Z M 10.480469 9.761719 "/>
<path style=" stroke:none;fill-rule:nonzero;fill:rgb(92.156863%,92.156863%,92.156863%);fill-opacity:1;" d="M 11.96875 8.660156 L 11.503906 8.988281 L 11.726562 9.304688 L 12.273438 8.921875 L 12.410156 9.117188 L 11.617188 9.667969 L 10.792969 8.492188 L 11.582031 7.941406 L 11.71875 8.136719 L 11.175781 8.519531 L 11.371094 8.796875 L 11.835938 8.472656 Z M 11.96875 8.660156 "/>
</g>
</svg>
