<?xml version="1.0" encoding="UTF-8"?>
<svg xmlns="http://www.w3.org/2000/svg" xmlns:xlink="http://www.w3.org/1999/xlink" width="40pt" height="40pt" viewBox="0 0 40 40" version="1.1">
<g id="surface1">
<path style=" stroke:none;fill-rule:nonzero;fill:rgb(50.196078%,54.117647%,100%);fill-opacity:1;" d="M 39.824219 19.910156 C 39.824219 20.601562 39.789062 21.289062 39.71875 21.960938 C 39.660156 22.558594 39.570312 23.148438 39.457031 23.726562 C 39.414062 23.953125 39.367188 24.171875 39.316406 24.394531 C 39.304688 24.457031 39.289062 24.519531 39.273438 24.582031 C 39.261719 24.621094 39.253906 24.65625 39.246094 24.691406 C 37.449219 31.984375 31.628906 37.699219 24.277344 39.34375 C 23.871094 39.433594 23.457031 39.511719 23.042969 39.578125 C 22.304688 39.695312 21.554688 39.769531 20.792969 39.804688 C 20.5 39.816406 20.207031 39.824219 19.910156 39.824219 C 8.914062 39.824219 0 30.90625 0 19.910156 C 0 8.914062 8.914062 0 19.910156 0 C 30.90625 0 39.824219 8.914062 39.824219 19.910156 Z M 39.824219 19.910156 "/>
<path style=" stroke:none;fill-rule:nonzero;fill:rgb(40%,43.137255%,80%);fill-opacity:1;" d="M 39.71875 21.960938 C 39.660156 22.558594 39.570312 23.148438 39.457031 23.726562 C 39.414062 23.953125 39.367188 24.171875 39.316406 24.394531 C 39.304688 24.457031 39.289062 24.519531 39.273438 24.582031 C 39.261719 24.621094 39.253906 24.65625 39.246094 24.691406 C 37.449219 31.984375 31.628906 37.699219 24.277344 39.34375 C 23.871094 39.433594 23.457031 39.511719 23.042969 39.578125 C 22.304688 39.695312 21.554688 39.769531 20.792969 39.804688 C 20.773438 39.785156 10.15625 29.164062 10.15625 29.164062 L 27.925781 10.140625 Z M 39.71875 21.960938 "/>
<path style=" stroke:none;fill-rule:nonzero;fill:rgb(92.156863%,92.156863%,92.156863%);fill-opacity:1;" d="M 17.695312 29.582031 L 11.214844 29.582031 C 10.355469 29.582031 9.660156 28.886719 9.660156 28.027344 L 9.660156 14.417969 L 17.695312 14.417969 Z M 17.695312 29.582031 "/>
<path style=" stroke:none;fill-rule:nonzero;fill:rgb(100%,100%,100%);fill-opacity:1;" d="M 27.925781 29.582031 L 13.144531 29.582031 C 12.289062 29.582031 11.589844 28.886719 11.589844 28.027344 L 11.589844 10.140625 L 27.925781 10.140625 Z M 27.925781 29.582031 "/>
<path style=" stroke:none;fill-rule:nonzero;fill:rgb(92.156863%,92.156863%,92.156863%);fill-opacity:1;" d="M 19.757812 10.140625 L 27.925781 10.140625 L 27.925781 29.582031 L 19.757812 29.582031 Z M 19.757812 10.140625 "/>
<path style=" stroke:none;fill-rule:nonzero;fill:rgb(75.294118%,85.490196%,98.431373%);fill-opacity:1;" d="M 13.925781 12.433594 L 25.589844 12.433594 L 25.589844 17.101562 L 13.925781 17.101562 Z M 13.925781 12.433594 "/>
<path style=" stroke:none;fill-rule:nonzero;fill:rgb(75.294118%,85.490196%,98.431373%);fill-opacity:1;" d="M 13.925781 18.660156 L 25.589844 18.660156 L 25.589844 20.214844 L 13.925781 20.214844 Z M 13.925781 18.660156 "/>
<path style=" stroke:none;fill-rule:nonzero;fill:rgb(75.294118%,85.490196%,98.431373%);fill-opacity:1;" d="M 13.925781 21.769531 L 18.980469 21.769531 L 18.980469 23.324219 L 13.925781 23.324219 Z M 13.925781 21.769531 "/>
<path style=" stroke:none;fill-rule:nonzero;fill:rgb(75.294118%,85.490196%,98.431373%);fill-opacity:1;" d="M 13.925781 24.878906 L 18.980469 24.878906 L 18.980469 26.4375 L 13.925781 26.4375 Z M 13.925781 24.878906 "/>
<path style=" stroke:none;fill-rule:nonzero;fill:rgb(62.745098%,72.54902%,84.705882%);fill-opacity:1;" d="M 20.535156 21.769531 L 25.589844 21.769531 L 25.589844 26.4375 L 20.535156 26.4375 Z M 20.535156 21.769531 "/>
<path style=" stroke:none;fill-rule:nonzero;fill:rgb(62.745098%,72.54902%,84.705882%);fill-opacity:1;" d="M 19.757812 18.660156 L 25.589844 18.660156 L 25.589844 20.214844 L 19.757812 20.214844 Z M 19.757812 18.660156 "/>
<path style=" stroke:none;fill-rule:nonzero;fill:rgb(62.745098%,72.54902%,84.705882%);fill-opacity:1;" d="M 19.757812 12.433594 L 25.589844 12.433594 L 25.589844 17.101562 L 19.757812 17.101562 Z M 19.757812 12.433594 "/>
<path style=" stroke:none;fill-rule:nonzero;fill:rgb(100%,40%,50.196078%);fill-opacity:1;" d="M 13.253906 21.25 L 23.449219 14.113281 L 26.570312 18.574219 L 16.375 25.710938 Z M 13.253906 21.25 "/>
<path style=" stroke:none;fill-rule:nonzero;fill:rgb(81.960784%,28.627451%,37.647059%);fill-opacity:1;" d="M 18.351562 17.683594 L 23.449219 14.113281 L 26.570312 18.574219 L 21.472656 22.140625 Z M 18.351562 17.683594 "/>
<path style=" stroke:none;fill-rule:nonzero;fill:rgb(100%,100%,100%);fill-opacity:1;" d="M 17.398438 21.992188 L 16.464844 22.644531 L 17.140625 23.605469 L 16.65625 23.949219 L 15.007812 21.589844 L 16.539062 20.519531 L 16.816406 20.910156 L 15.765625 21.644531 L 16.191406 22.25 L 17.125 21.601562 Z M 17.398438 21.992188 "/>
<path style=" stroke:none;fill-rule:nonzero;fill:rgb(100%,100%,100%);fill-opacity:1;" d="M 19.398438 21.304688 L 18.546875 21.898438 L 18.726562 22.496094 L 18.210938 22.859375 L 17.4375 19.890625 L 17.886719 19.574219 L 20.417969 21.3125 L 19.902344 21.671875 Z M 18.402344 21.414062 L 18.992188 21.003906 L 18.078125 20.328125 Z M 18.402344 21.414062 "/>
<path style=" stroke:none;fill-rule:nonzero;fill:rgb(92.156863%,92.156863%,92.156863%);fill-opacity:1;" d="M 20.960938 19.523438 L 20.898438 19.972656 L 21.371094 20.644531 L 20.886719 20.984375 L 19.238281 18.628906 L 19.722656 18.289062 L 20.46875 19.355469 L 20.476562 18.914062 L 20.535156 17.71875 L 21.132812 17.300781 L 21.03125 18.933594 L 22.804688 19.640625 L 22.230469 20.042969 Z M 20.960938 19.523438 "/>
<path style=" stroke:none;fill-rule:nonzero;fill:rgb(92.156863%,92.156863%,92.156863%);fill-opacity:1;" d="M 23.941406 17.324219 L 23.007812 17.976562 L 23.449219 18.609375 L 24.542969 17.84375 L 24.816406 18.230469 L 23.238281 19.335938 L 21.589844 16.980469 L 23.164062 15.878906 L 23.4375 16.269531 L 22.347656 17.035156 L 22.742188 17.597656 L 23.675781 16.945312 Z M 23.941406 17.324219 "/>
</g>
</svg>
