<?xml version="1.0" encoding="UTF-8"?>
<svg xmlns="http://www.w3.org/2000/svg" xmlns:xlink="http://www.w3.org/1999/xlink" width="120pt" height="120pt" viewBox="0 0 120 120" version="1.1">
<g id="surface1">
<path style=" stroke:none;fill-rule:nonzero;fill:rgb(50.196078%,54.117647%,100%);fill-opacity:1;" d="M 119.46875 59.734375 C 119.46875 61.808594 119.367188 63.863281 119.15625 65.882812 C 118.976562 67.679688 118.710938 69.441406 118.371094 71.183594 C 118.238281 71.859375 118.101562 72.519531 117.949219 73.183594 C 117.910156 73.371094 117.863281 73.5625 117.816406 73.75 C 117.789062 73.859375 117.761719 73.964844 117.738281 74.078125 C 112.34375 95.957031 94.886719 113.097656 72.828125 118.027344 C 71.609375 118.300781 70.375 118.539062 69.125 118.734375 C 66.917969 119.085938 64.664062 119.308594 62.378906 119.410156 C 61.503906 119.449219 60.621094 119.46875 59.734375 119.46875 C 26.746094 119.46875 0 92.722656 0 59.734375 C 0 26.746094 26.746094 0 59.734375 0 C 92.722656 0 119.46875 26.746094 119.46875 59.734375 Z M 119.46875 59.734375 "/>
<path style=" stroke:none;fill-rule:nonzero;fill:rgb(40%,43.137255%,80%);fill-opacity:1;" d="M 119.15625 65.882812 C 118.976562 67.679688 118.710938 69.441406 118.371094 71.183594 C 118.238281 71.859375 118.101562 72.519531 117.949219 73.183594 C 117.910156 73.371094 117.863281 73.5625 117.816406 73.75 C 117.789062 73.859375 117.761719 73.964844 117.738281 74.078125 C 112.34375 95.957031 94.886719 113.097656 72.828125 118.027344 C 71.609375 118.300781 70.375 118.539062 69.125 118.734375 C 66.917969 119.085938 64.664062 119.308594 62.378906 119.410156 C 62.320312 119.355469 30.46875 87.496094 30.46875 87.496094 L 83.773438 30.417969 Z M 119.15625 65.882812 "/>
<path style=" stroke:none;fill-rule:nonzero;fill:rgb(92.156863%,92.156863%,92.156863%);fill-opacity:1;" d="M 53.085938 88.75 L 33.648438 88.75 C 31.070312 88.75 28.980469 86.660156 28.980469 84.085938 L 28.980469 43.25 L 53.085938 43.25 Z M 53.085938 88.75 "/>
<path style=" stroke:none;fill-rule:nonzero;fill:rgb(100%,100%,100%);fill-opacity:1;" d="M 83.773438 88.75 L 39.4375 88.75 C 36.863281 88.75 34.773438 86.660156 34.773438 84.085938 L 34.773438 30.417969 L 83.773438 30.417969 Z M 83.773438 88.75 "/>
<path style=" stroke:none;fill-rule:nonzero;fill:rgb(92.156863%,92.156863%,92.156863%);fill-opacity:1;" d="M 59.273438 30.417969 L 83.773438 30.417969 L 83.773438 88.75 L 59.273438 88.75 Z M 59.273438 30.417969 "/>
<path style=" stroke:none;fill-rule:nonzero;fill:rgb(75.294118%,85.490196%,98.431373%);fill-opacity:1;" d="M 41.773438 37.304688 L 76.773438 37.304688 L 76.773438 51.304688 L 41.773438 51.304688 Z M 41.773438 37.304688 "/>
<path style=" stroke:none;fill-rule:nonzero;fill:rgb(75.294118%,85.490196%,98.431373%);fill-opacity:1;" d="M 41.773438 55.976562 L 76.773438 55.976562 L 76.773438 60.640625 L 41.773438 60.640625 Z M 41.773438 55.976562 "/>
<path style=" stroke:none;fill-rule:nonzero;fill:rgb(75.294118%,85.490196%,98.431373%);fill-opacity:1;" d="M 41.773438 65.308594 L 56.941406 65.308594 L 56.941406 69.976562 L 41.773438 69.976562 Z M 41.773438 65.308594 "/>
<path style=" stroke:none;fill-rule:nonzero;fill:rgb(75.294118%,85.490196%,98.431373%);fill-opacity:1;" d="M 41.773438 74.640625 L 56.941406 74.640625 L 56.941406 79.308594 L 41.773438 79.308594 Z M 41.773438 74.640625 "/>
<path style=" stroke:none;fill-rule:nonzero;fill:rgb(62.745098%,72.54902%,84.705882%);fill-opacity:1;" d="M 61.605469 65.308594 L 76.773438 65.308594 L 76.773438 79.308594 L 61.605469 79.308594 Z M 61.605469 65.308594 "/>
<path style=" stroke:none;fill-rule:nonzero;fill:rgb(62.745098%,72.54902%,84.705882%);fill-opacity:1;" d="M 59.273438 55.976562 L 76.773438 55.976562 L 76.773438 60.640625 L 59.273438 60.640625 Z M 59.273438 55.976562 "/>
<path style=" stroke:none;fill-rule:nonzero;fill:rgb(62.745098%,72.54902%,84.705882%);fill-opacity:1;" d="M 59.273438 37.304688 L 76.773438 37.304688 L 76.773438 51.304688 L 59.273438 51.304688 Z M 59.273438 37.304688 "/>
<path style=" stroke:none;fill-rule:nonzero;fill:rgb(100%,40%,50.196078%);fill-opacity:1;" d="M 39.761719 63.753906 L 70.34375 42.335938 L 79.714844 55.722656 L 49.128906 77.132812 Z M 39.761719 63.753906 "/>
<path style=" stroke:none;fill-rule:nonzero;fill:rgb(81.960784%,28.627451%,37.647059%);fill-opacity:1;" d="M 55.050781 53.046875 L 70.34375 42.335938 L 79.714844 55.722656 L 64.421875 66.421875 Z M 55.050781 53.046875 "/>
<path style=" stroke:none;fill-rule:nonzero;fill:rgb(100%,100%,100%);fill-opacity:1;" d="M 52.195312 65.972656 L 49.398438 67.933594 L 51.421875 70.820312 L 49.964844 71.84375 L 45.019531 64.773438 L 49.617188 61.554688 L 50.449219 62.730469 L 47.300781 64.929688 L 48.574219 66.753906 L 51.375 64.800781 Z M 52.195312 65.972656 "/>
<path style=" stroke:none;fill-rule:nonzero;fill:rgb(100%,100%,100%);fill-opacity:1;" d="M 58.195312 63.910156 L 55.644531 65.699219 L 56.175781 67.492188 L 54.628906 68.574219 L 52.308594 59.667969 L 53.664062 58.722656 L 61.253906 63.933594 L 59.703125 65.019531 Z M 55.207031 64.242188 L 56.976562 63.007812 L 54.238281 60.980469 Z M 55.207031 64.242188 "/>
<path style=" stroke:none;fill-rule:nonzero;fill:rgb(92.156863%,92.156863%,92.156863%);fill-opacity:1;" d="M 62.886719 58.566406 L 62.699219 59.914062 L 64.117188 61.933594 L 62.660156 62.953125 L 57.710938 55.886719 L 59.164062 54.867188 L 61.410156 58.070312 L 61.433594 56.742188 L 61.605469 53.160156 L 63.402344 51.90625 L 63.089844 56.800781 L 68.417969 58.921875 L 66.6875 60.128906 Z M 62.886719 58.566406 "/>
<path style=" stroke:none;fill-rule:nonzero;fill:rgb(92.156863%,92.156863%,92.156863%);fill-opacity:1;" d="M 71.820312 51.972656 L 69.027344 53.933594 L 70.347656 55.824219 L 73.632812 53.527344 L 74.449219 54.695312 L 69.710938 58.011719 L 64.765625 50.945312 L 69.492188 47.636719 L 70.316406 48.8125 L 67.046875 51.105469 L 68.226562 52.792969 L 71.023438 50.832031 Z M 71.820312 51.972656 "/>
</g>
</svg>
