<?xml version="1.0" encoding="UTF-8"?>
<svg xmlns="http://www.w3.org/2000/svg" xmlns:xlink="http://www.w3.org/1999/xlink" width="70pt" height="70pt" viewBox="0 0 70 70" version="1.1">
<g id="surface1">
<path style=" stroke:none;fill-rule:nonzero;fill:rgb(50.196078%,54.117647%,100%);fill-opacity:1;" d="M 69.691406 34.84375 C 69.691406 36.054688 69.628906 37.253906 69.507812 38.433594 C 69.402344 39.480469 69.25 40.507812 69.050781 41.523438 C 68.972656 41.917969 68.890625 42.304688 68.804688 42.691406 C 68.78125 42.800781 68.753906 42.914062 68.726562 43.019531 C 68.710938 43.085938 68.695312 43.144531 68.679688 43.210938 C 65.535156 55.976562 55.351562 65.972656 42.484375 68.847656 C 41.773438 69.007812 41.050781 69.148438 40.324219 69.261719 C 39.035156 69.464844 37.722656 69.597656 36.386719 69.65625 C 35.875 69.679688 35.363281 69.691406 34.84375 69.691406 C 15.601562 69.691406 0 54.089844 0 34.84375 C 0 15.601562 15.601562 0 34.84375 0 C 54.089844 0 69.691406 15.601562 69.691406 34.84375 Z M 69.691406 34.84375 "/>
<path style=" stroke:none;fill-rule:nonzero;fill:rgb(40%,43.137255%,80%);fill-opacity:1;" d="M 69.507812 38.433594 C 69.402344 39.480469 69.25 40.507812 69.050781 41.523438 C 68.972656 41.917969 68.890625 42.304688 68.804688 42.691406 C 68.78125 42.800781 68.753906 42.914062 68.726562 43.019531 C 68.710938 43.085938 68.695312 43.144531 68.679688 43.210938 C 65.535156 55.976562 55.351562 65.972656 42.484375 68.847656 C 41.773438 69.007812 41.050781 69.148438 40.324219 69.261719 C 39.035156 69.464844 37.722656 69.597656 36.386719 69.65625 C 36.355469 69.625 17.773438 51.039062 17.773438 51.039062 L 48.867188 17.742188 Z M 69.507812 38.433594 "/>
<path style=" stroke:none;fill-rule:nonzero;fill:rgb(92.156863%,92.156863%,92.156863%);fill-opacity:1;" d="M 30.96875 51.773438 L 19.628906 51.773438 C 18.125 51.773438 16.90625 50.550781 16.90625 49.050781 L 16.90625 25.230469 L 30.96875 25.230469 Z M 30.96875 51.773438 "/>
<path style=" stroke:none;fill-rule:nonzero;fill:rgb(100%,100%,100%);fill-opacity:1;" d="M 48.867188 51.773438 L 23.007812 51.773438 C 21.503906 51.773438 20.285156 50.550781 20.285156 49.050781 L 20.285156 17.742188 L 48.867188 17.742188 Z M 48.867188 51.773438 "/>
<path style=" stroke:none;fill-rule:nonzero;fill:rgb(92.156863%,92.156863%,92.156863%);fill-opacity:1;" d="M 34.574219 17.742188 L 48.867188 17.742188 L 48.867188 51.773438 L 34.574219 51.773438 Z M 34.574219 17.742188 "/>
<path style=" stroke:none;fill-rule:nonzero;fill:rgb(75.294118%,85.490196%,98.431373%);fill-opacity:1;" d="M 24.367188 21.761719 L 44.785156 21.761719 L 44.785156 29.925781 L 24.367188 29.925781 Z M 24.367188 21.761719 "/>
<path style=" stroke:none;fill-rule:nonzero;fill:rgb(75.294118%,85.490196%,98.431373%);fill-opacity:1;" d="M 24.367188 32.652344 L 44.785156 32.652344 L 44.785156 35.375 L 24.367188 35.375 Z M 24.367188 32.652344 "/>
<path style=" stroke:none;fill-rule:nonzero;fill:rgb(75.294118%,85.490196%,98.431373%);fill-opacity:1;" d="M 24.367188 38.097656 L 33.214844 38.097656 L 33.214844 40.820312 L 24.367188 40.820312 Z M 24.367188 38.097656 "/>
<path style=" stroke:none;fill-rule:nonzero;fill:rgb(75.294118%,85.490196%,98.431373%);fill-opacity:1;" d="M 24.367188 43.542969 L 33.214844 43.542969 L 33.214844 46.261719 L 24.367188 46.261719 Z M 24.367188 43.542969 "/>
<path style=" stroke:none;fill-rule:nonzero;fill:rgb(62.745098%,72.54902%,84.705882%);fill-opacity:1;" d="M 35.9375 38.097656 L 44.785156 38.097656 L 44.785156 46.261719 L 35.9375 46.261719 Z M 35.9375 38.097656 "/>
<path style=" stroke:none;fill-rule:nonzero;fill:rgb(62.745098%,72.54902%,84.705882%);fill-opacity:1;" d="M 34.574219 32.652344 L 44.785156 32.652344 L 44.785156 35.375 L 34.574219 35.375 Z M 34.574219 32.652344 "/>
<path style=" stroke:none;fill-rule:nonzero;fill:rgb(62.745098%,72.54902%,84.705882%);fill-opacity:1;" d="M 34.574219 21.761719 L 44.785156 21.761719 L 44.785156 29.925781 L 34.574219 29.925781 Z M 34.574219 21.761719 "/>
<path style=" stroke:none;fill-rule:nonzero;fill:rgb(100%,40%,50.196078%);fill-opacity:1;" d="M 23.195312 37.1875 L 41.035156 24.695312 L 46.5 32.503906 L 28.660156 44.992188 Z M 23.195312 37.1875 "/>
<path style=" stroke:none;fill-rule:nonzero;fill:rgb(81.960784%,28.627451%,37.647059%);fill-opacity:1;" d="M 32.113281 30.941406 L 41.035156 24.695312 L 46.5 32.503906 L 37.578125 38.746094 Z M 32.113281 30.941406 "/>
<path style=" stroke:none;fill-rule:nonzero;fill:rgb(100%,100%,100%);fill-opacity:1;" d="M 30.445312 38.484375 L 28.816406 39.628906 L 29.996094 41.3125 L 29.148438 41.90625 L 26.261719 37.785156 L 28.945312 35.90625 L 29.429688 36.59375 L 27.589844 37.875 L 28.335938 38.941406 L 29.96875 37.800781 Z M 30.445312 38.484375 "/>
<path style=" stroke:none;fill-rule:nonzero;fill:rgb(100%,100%,100%);fill-opacity:1;" d="M 33.945312 37.28125 L 32.457031 38.324219 L 32.769531 39.371094 L 31.867188 40.003906 L 30.515625 34.804688 L 31.304688 34.253906 L 35.730469 37.296875 L 34.828125 37.925781 Z M 32.203125 37.472656 L 33.234375 36.753906 L 31.640625 35.570312 Z M 32.203125 37.472656 "/>
<path style=" stroke:none;fill-rule:nonzero;fill:rgb(92.156863%,92.156863%,92.156863%);fill-opacity:1;" d="M 36.683594 34.164062 L 36.574219 34.949219 L 37.402344 36.128906 L 36.550781 36.722656 L 33.664062 32.601562 L 34.511719 32.003906 L 35.820312 33.875 L 35.835938 33.101562 L 35.9375 31.007812 L 36.984375 30.277344 L 36.800781 33.132812 L 39.910156 34.371094 L 38.902344 35.074219 Z M 36.683594 34.164062 "/>
<path style=" stroke:none;fill-rule:nonzero;fill:rgb(92.156863%,92.156863%,92.156863%);fill-opacity:1;" d="M 41.894531 30.316406 L 40.265625 31.460938 L 41.035156 32.566406 L 42.953125 31.222656 L 43.429688 31.90625 L 40.664062 33.839844 L 37.777344 29.71875 L 40.539062 27.789062 L 41.019531 28.476562 L 39.109375 29.8125 L 39.800781 30.796875 L 41.429688 29.652344 Z M 41.894531 30.316406 "/>
</g>
</svg>
