<?xml version="1.0" encoding="UTF-8"?>
<svg xmlns="http://www.w3.org/2000/svg" xmlns:xlink="http://www.w3.org/1999/xlink" width="90pt" height="90pt" viewBox="0 0 90 90" version="1.1">
<g id="surface1">
<path style=" stroke:none;fill-rule:nonzero;fill:rgb(50.196078%,54.117647%,100%);fill-opacity:1;" d="M 90 45 C 90 46.5625 89.921875 48.109375 89.765625 49.632812 C 89.628906 50.984375 89.429688 52.3125 89.171875 53.625 C 89.074219 54.132812 88.96875 54.632812 88.855469 55.132812 C 88.824219 55.273438 88.789062 55.417969 88.753906 55.558594 C 88.734375 55.640625 88.714844 55.71875 88.695312 55.804688 C 84.632812 72.289062 71.480469 85.199219 54.863281 88.914062 C 53.945312 89.121094 53.015625 89.300781 52.074219 89.445312 C 50.410156 89.710938 48.714844 89.878906 46.992188 89.957031 C 46.332031 89.984375 45.667969 90 45 90 C 20.148438 90 0 69.851562 0 45 C 0 20.148438 20.148438 0 45 0 C 69.851562 0 90 20.148438 90 45 Z M 90 45 "/>
<path style=" stroke:none;fill-rule:nonzero;fill:rgb(40%,43.137255%,80%);fill-opacity:1;" d="M 89.765625 49.632812 C 89.628906 50.984375 89.429688 52.3125 89.171875 53.625 C 89.074219 54.132812 88.96875 54.632812 88.855469 55.132812 C 88.824219 55.273438 88.789062 55.417969 88.753906 55.558594 C 88.734375 55.640625 88.714844 55.71875 88.695312 55.804688 C 84.632812 72.289062 71.480469 85.199219 54.863281 88.914062 C 53.945312 89.121094 53.015625 89.300781 52.074219 89.445312 C 50.410156 89.710938 48.714844 89.878906 46.992188 89.957031 C 46.949219 89.914062 22.953125 65.914062 22.953125 65.914062 L 63.109375 22.914062 Z M 89.765625 49.632812 "/>
<path style=" stroke:none;fill-rule:nonzero;fill:rgb(92.156863%,92.156863%,92.156863%);fill-opacity:1;" d="M 39.992188 66.859375 L 25.347656 66.859375 C 23.40625 66.859375 21.832031 65.285156 21.832031 63.34375 L 21.832031 32.582031 L 39.992188 32.582031 Z M 39.992188 66.859375 "/>
<path style=" stroke:none;fill-rule:nonzero;fill:rgb(100%,100%,100%);fill-opacity:1;" d="M 63.109375 66.859375 L 29.710938 66.859375 C 27.769531 66.859375 26.195312 65.285156 26.195312 63.34375 L 26.195312 22.914062 L 63.109375 22.914062 Z M 63.109375 66.859375 "/>
<path style=" stroke:none;fill-rule:nonzero;fill:rgb(92.156863%,92.156863%,92.156863%);fill-opacity:1;" d="M 44.652344 22.914062 L 63.109375 22.914062 L 63.109375 66.859375 L 44.652344 66.859375 Z M 44.652344 22.914062 "/>
<path style=" stroke:none;fill-rule:nonzero;fill:rgb(75.294118%,85.490196%,98.431373%);fill-opacity:1;" d="M 31.46875 28.101562 L 57.835938 28.101562 L 57.835938 38.648438 L 31.46875 38.648438 Z M 31.46875 28.101562 "/>
<path style=" stroke:none;fill-rule:nonzero;fill:rgb(75.294118%,85.490196%,98.431373%);fill-opacity:1;" d="M 31.46875 42.167969 L 57.835938 42.167969 L 57.835938 45.683594 L 31.46875 45.683594 Z M 31.46875 42.167969 "/>
<path style=" stroke:none;fill-rule:nonzero;fill:rgb(75.294118%,85.490196%,98.431373%);fill-opacity:1;" d="M 31.46875 49.199219 L 42.894531 49.199219 L 42.894531 52.714844 L 31.46875 52.714844 Z M 31.46875 49.199219 "/>
<path style=" stroke:none;fill-rule:nonzero;fill:rgb(75.294118%,85.490196%,98.431373%);fill-opacity:1;" d="M 31.46875 56.230469 L 42.894531 56.230469 L 42.894531 59.746094 L 31.46875 59.746094 Z M 31.46875 56.230469 "/>
<path style=" stroke:none;fill-rule:nonzero;fill:rgb(62.745098%,72.54902%,84.705882%);fill-opacity:1;" d="M 46.410156 49.199219 L 57.835938 49.199219 L 57.835938 59.746094 L 46.410156 59.746094 Z M 46.410156 49.199219 "/>
<path style=" stroke:none;fill-rule:nonzero;fill:rgb(62.745098%,72.54902%,84.705882%);fill-opacity:1;" d="M 44.652344 42.167969 L 57.835938 42.167969 L 57.835938 45.683594 L 44.652344 45.683594 Z M 44.652344 42.167969 "/>
<path style=" stroke:none;fill-rule:nonzero;fill:rgb(62.745098%,72.54902%,84.705882%);fill-opacity:1;" d="M 44.652344 28.101562 L 57.835938 28.101562 L 57.835938 38.648438 L 44.652344 38.648438 Z M 44.652344 28.101562 "/>
<path style=" stroke:none;fill-rule:nonzero;fill:rgb(100%,40%,50.196078%);fill-opacity:1;" d="M 29.953125 48.027344 L 52.992188 31.894531 L 60.050781 41.976562 L 37.011719 58.105469 Z M 29.953125 48.027344 "/>
<path style=" stroke:none;fill-rule:nonzero;fill:rgb(81.960784%,28.627451%,37.647059%);fill-opacity:1;" d="M 41.472656 39.960938 L 52.992188 31.894531 L 60.050781 41.976562 L 48.53125 50.039062 Z M 41.472656 39.960938 "/>
<path style=" stroke:none;fill-rule:nonzero;fill:rgb(100%,100%,100%);fill-opacity:1;" d="M 39.320312 49.699219 L 37.214844 51.175781 L 38.738281 53.351562 L 37.640625 54.121094 L 33.914062 48.796875 L 37.378906 46.371094 L 38.003906 47.257812 L 35.632812 48.914062 L 36.59375 50.289062 L 38.703125 48.816406 Z M 39.320312 49.699219 "/>
<path style=" stroke:none;fill-rule:nonzero;fill:rgb(100%,100%,100%);fill-opacity:1;" d="M 43.839844 48.144531 L 41.917969 49.492188 L 42.320312 50.84375 L 41.152344 51.660156 L 39.40625 44.949219 L 40.425781 44.238281 L 46.144531 48.164062 L 44.976562 48.980469 Z M 41.589844 48.394531 L 42.921875 47.464844 L 40.859375 45.9375 Z M 41.589844 48.394531 "/>
<path style=" stroke:none;fill-rule:nonzero;fill:rgb(92.156863%,92.156863%,92.156863%);fill-opacity:1;" d="M 47.375 44.121094 L 47.234375 45.136719 L 48.300781 46.65625 L 47.203125 47.425781 L 43.476562 42.101562 L 44.570312 41.332031 L 46.261719 43.746094 L 46.28125 42.746094 L 46.410156 40.046875 L 47.761719 39.101562 L 47.527344 42.789062 L 51.542969 44.386719 L 50.238281 45.296875 Z M 47.375 44.121094 "/>
<path style=" stroke:none;fill-rule:nonzero;fill:rgb(92.156863%,92.156863%,92.156863%);fill-opacity:1;" d="M 54.105469 39.152344 L 52 40.628906 L 52.996094 42.054688 L 55.46875 40.324219 L 56.085938 41.203125 L 52.515625 43.703125 L 48.789062 38.378906 L 52.351562 35.886719 L 52.972656 36.773438 L 50.507812 38.5 L 51.398438 39.769531 L 53.503906 38.292969 Z M 54.105469 39.152344 "/>
</g>
</svg>
